<mxfile host="app.diagrams.net" modified="2023-10-24T04:17:04.606Z" agent="Mozilla/5.0 (X11; Linux x86_64) AppleWebKit/537.36 (KHTML, like Gecko) Chrome/118.0.0.0 Safari/537.36" etag="DxkxCY6STmZ0FBv878wr" version="22.0.6" type="device">
  <diagram name="PÃ¡gina-1" id="3ECOgorljatNLqw7BTFi">
    <mxGraphModel dx="2626" dy="2190" grid="1" gridSize="10" guides="1" tooltips="1" connect="1" arrows="1" fold="1" page="1" pageScale="1" pageWidth="827" pageHeight="1169" math="0" shadow="0">
      <root>
        <mxCell id="0" />
        <mxCell id="1" parent="0" />
        <mxCell id="twFo_v-Fs8OyZLz3w6QD-7" style="edgeStyle=orthogonalEdgeStyle;rounded=0;orthogonalLoop=1;jettySize=auto;html=1;entryX=0;entryY=0.5;entryDx=0;entryDy=0;" edge="1" parent="1" source="twFo_v-Fs8OyZLz3w6QD-1" target="twFo_v-Fs8OyZLz3w6QD-2">
          <mxGeometry relative="1" as="geometry" />
        </mxCell>
        <mxCell id="twFo_v-Fs8OyZLz3w6QD-8" style="edgeStyle=orthogonalEdgeStyle;rounded=0;orthogonalLoop=1;jettySize=auto;html=1;entryX=0;entryY=0.5;entryDx=0;entryDy=0;" edge="1" parent="1" source="twFo_v-Fs8OyZLz3w6QD-1" target="twFo_v-Fs8OyZLz3w6QD-3">
          <mxGeometry relative="1" as="geometry" />
        </mxCell>
        <mxCell id="twFo_v-Fs8OyZLz3w6QD-1" value="LOAD BALANCER" style="rounded=0;whiteSpace=wrap;html=1;fillColor=#f8cecc;strokeColor=#b85450;" vertex="1" parent="1">
          <mxGeometry x="-30" y="240" width="160" height="100" as="geometry" />
        </mxCell>
        <mxCell id="twFo_v-Fs8OyZLz3w6QD-10" style="edgeStyle=orthogonalEdgeStyle;rounded=0;orthogonalLoop=1;jettySize=auto;html=1;" edge="1" parent="1" source="twFo_v-Fs8OyZLz3w6QD-2" target="twFo_v-Fs8OyZLz3w6QD-4">
          <mxGeometry relative="1" as="geometry" />
        </mxCell>
        <mxCell id="twFo_v-Fs8OyZLz3w6QD-2" value="APP1" style="rounded=0;whiteSpace=wrap;html=1;fillColor=#dae8fc;strokeColor=#6c8ebf;" vertex="1" parent="1">
          <mxGeometry x="230" y="100" width="160" height="100" as="geometry" />
        </mxCell>
        <mxCell id="twFo_v-Fs8OyZLz3w6QD-13" style="edgeStyle=orthogonalEdgeStyle;rounded=0;orthogonalLoop=1;jettySize=auto;html=1;" edge="1" parent="1" source="twFo_v-Fs8OyZLz3w6QD-3" target="twFo_v-Fs8OyZLz3w6QD-6">
          <mxGeometry relative="1" as="geometry" />
        </mxCell>
        <mxCell id="twFo_v-Fs8OyZLz3w6QD-14" style="edgeStyle=orthogonalEdgeStyle;rounded=0;orthogonalLoop=1;jettySize=auto;html=1;" edge="1" parent="1" source="twFo_v-Fs8OyZLz3w6QD-3" target="twFo_v-Fs8OyZLz3w6QD-4">
          <mxGeometry relative="1" as="geometry" />
        </mxCell>
        <mxCell id="twFo_v-Fs8OyZLz3w6QD-3" value="APP2" style="rounded=0;whiteSpace=wrap;html=1;fillColor=#dae8fc;strokeColor=#6c8ebf;" vertex="1" parent="1">
          <mxGeometry x="240" y="360" width="160" height="100" as="geometry" />
        </mxCell>
        <mxCell id="twFo_v-Fs8OyZLz3w6QD-4" value="REDIS" style="shape=cylinder3;whiteSpace=wrap;html=1;boundedLbl=1;backgroundOutline=1;size=15;fillColor=#f5f5f5;fontColor=#333333;strokeColor=#666666;" vertex="1" parent="1">
          <mxGeometry x="580" y="220" width="60" height="80" as="geometry" />
        </mxCell>
        <mxCell id="twFo_v-Fs8OyZLz3w6QD-6" value="TURSO" style="shape=cylinder3;whiteSpace=wrap;html=1;boundedLbl=1;backgroundOutline=1;size=15;fillColor=#f5f5f5;fontColor=#333333;strokeColor=#666666;" vertex="1" parent="1">
          <mxGeometry x="690" y="220" width="60" height="80" as="geometry" />
        </mxCell>
        <mxCell id="twFo_v-Fs8OyZLz3w6QD-17" style="edgeStyle=orthogonalEdgeStyle;rounded=0;orthogonalLoop=1;jettySize=auto;html=1;" edge="1" parent="1" source="twFo_v-Fs8OyZLz3w6QD-9" target="twFo_v-Fs8OyZLz3w6QD-16">
          <mxGeometry relative="1" as="geometry" />
        </mxCell>
        <mxCell id="twFo_v-Fs8OyZLz3w6QD-9" value="CRON" style="rounded=0;whiteSpace=wrap;html=1;fillColor=#fff2cc;strokeColor=#d6b656;" vertex="1" parent="1">
          <mxGeometry x="720" y="-20" width="160" height="100" as="geometry" />
        </mxCell>
        <mxCell id="twFo_v-Fs8OyZLz3w6QD-15" style="edgeStyle=orthogonalEdgeStyle;rounded=0;orthogonalLoop=1;jettySize=auto;html=1;entryX=0.5;entryY=0;entryDx=0;entryDy=0;entryPerimeter=0;" edge="1" parent="1" source="twFo_v-Fs8OyZLz3w6QD-2" target="twFo_v-Fs8OyZLz3w6QD-6">
          <mxGeometry relative="1" as="geometry" />
        </mxCell>
        <mxCell id="twFo_v-Fs8OyZLz3w6QD-16" value="JIkanAPI" style="rounded=0;whiteSpace=wrap;html=1;fillColor=#d5e8d4;strokeColor=#82b366;" vertex="1" parent="1">
          <mxGeometry x="1020" y="-20" width="160" height="100" as="geometry" />
        </mxCell>
        <mxCell id="twFo_v-Fs8OyZLz3w6QD-19" style="edgeStyle=orthogonalEdgeStyle;rounded=0;orthogonalLoop=1;jettySize=auto;html=1;entryX=1;entryY=0.5;entryDx=0;entryDy=0;entryPerimeter=0;" edge="1" parent="1" source="twFo_v-Fs8OyZLz3w6QD-9" target="twFo_v-Fs8OyZLz3w6QD-6">
          <mxGeometry relative="1" as="geometry" />
        </mxCell>
        <mxCell id="twFo_v-Fs8OyZLz3w6QD-21" style="edgeStyle=orthogonalEdgeStyle;rounded=0;orthogonalLoop=1;jettySize=auto;html=1;entryX=0;entryY=0.5;entryDx=0;entryDy=0;" edge="1" parent="1" source="twFo_v-Fs8OyZLz3w6QD-20" target="twFo_v-Fs8OyZLz3w6QD-1">
          <mxGeometry relative="1" as="geometry" />
        </mxCell>
        <mxCell id="twFo_v-Fs8OyZLz3w6QD-20" value="Client" style="text;html=1;strokeColor=none;fillColor=none;align=center;verticalAlign=middle;whiteSpace=wrap;rounded=0;" vertex="1" parent="1">
          <mxGeometry x="-240" y="275" width="70" height="30" as="geometry" />
        </mxCell>
      </root>
    </mxGraphModel>
  </diagram>
</mxfile>
